<svg xmlns="http://www.w3.org/2000/svg" width="24" height="24" viewBox="0 0 24 24" fill="none">
  <path d="M4.90085 0.619228C5.41285 0.516829 5.82245 0.482695 6.12965 0.516828C6.43685 0.516828 6.91472 0.636295 7.56325 0.875228C7.90458 0.977629 8.19472 1.0971 8.43365 1.23363C8.67258 1.37016 8.91152 1.54083 9.15045 1.74563C9.38938 1.95043 9.67952 2.24056 10.0209 2.61603C10.8742 3.50349 11.5056 4.23736 11.9152 4.81763C12.2566 5.32963 12.5638 5.60269 12.8368 5.63683C13.144 5.63683 13.3659 5.3979 13.5024 4.92003C13.8438 3.9643 14.4923 3.02563 15.448 2.10403C16.4038 1.18243 17.5814 0.704562 18.9808 0.670429C20.3803 0.602162 21.3019 1.01176 21.7456 1.89923C21.9504 2.30883 22.1382 2.61603 22.3088 2.82083C22.5136 3.12803 22.8038 4.04963 23.1792 5.58563C23.2816 6.20003 23.2134 6.86563 22.9744 7.58243C22.8038 8.12856 22.5136 9.11843 22.104 10.552C21.2166 13.624 20.312 15.7062 19.3904 16.7984C19.0832 17.208 18.6566 17.7542 18.1104 18.4368C17.735 18.9488 17.3083 19.3584 16.8304 19.6656C16.2502 20.007 15.1579 20.9115 13.5536 22.3792C12.7344 23.096 11.9835 23.3008 11.3008 22.9936C10.9595 22.8571 10.7888 22.7206 10.7888 22.584C10.7888 22.4816 10.1744 21.7819 8.94565 20.4848C7.71685 19.1878 6.93178 18.2662 6.59045 17.72C6.21498 17.1056 5.60058 16.3035 4.74725 15.3136C4.33765 14.8016 4.01338 14.4091 3.77445 14.136C3.56965 13.863 3.36485 13.5728 3.16005 13.2656C2.95525 12.9584 2.76752 12.6683 2.59685 12.3952C2.46032 12.1222 2.27258 11.7296 2.03365 11.2176C1.28272 9.81816 0.821919 8.35043 0.651252 6.81443C0.582985 5.99523 0.736585 5.1419 1.11205 4.25443C1.48752 3.36696 2.01658 2.59896 2.69925 1.95043C3.41605 1.26776 4.14992 0.824029 4.90085 0.619228Z" fill="#FF4F6E"/>
</svg>